<svg width="56" height="56" viewBox="0 0 56 56" fill="none" xmlns="http://www.w3.org/2000/svg">
<path d="M42 46.6667C42 42.9537 40.525 39.3927 37.8995 36.7672C35.274 34.1417 31.713 32.6667 28 32.6667M28 32.6667C24.287 32.6667 20.726 34.1417 18.1005 36.7672C15.475 39.3927 14 42.9537 14 46.6667M28 32.6667C33.1547 32.6667 37.3333 28.488 37.3333 23.3334C37.3333 18.1787 33.1547 14 28 14C22.8453 14 18.6667 18.1787 18.6667 23.3334C18.6667 28.488 22.8453 32.6667 28 32.6667ZM51.3333 28C51.3333 40.8867 40.8867 51.3334 28 51.3334C15.1134 51.3334 4.66667 40.8867 4.66667 28C4.66667 15.1134 15.1134 4.66669 28 4.66669C40.8867 4.66669 51.3333 15.1134 51.3333 28Z" stroke="#EBEBEB" stroke-width="1.5" stroke-linecap="round" stroke-linejoin="round"/>
</svg>
