<svg width="24" height="24" viewBox="0 0 24 24" fill="none" xmlns="http://www.w3.org/2000/svg">
<path d="M13 4.5H8.5L6 6.5H4.5C3.96957 6.5 3.46086 6.71071 3.08579 7.08579C2.71071 7.46086 2.5 7.96957 2.5 8.5V17.5C2.5 18.0304 2.71071 18.5391 3.08579 18.9142C3.46086 19.2893 3.96957 19.5 4.5 19.5H17.5C18.0304 19.5 18.5391 19.2893 18.9142 18.9142C19.2893 18.5391 19.5 18.0304 19.5 17.5V10.5M14 12.5C14 14.1569 12.6569 15.5 11 15.5C9.34315 15.5 8 14.1569 8 12.5C8 10.8431 9.34315 9.5 11 9.5C12.6569 9.5 14 10.8431 14 12.5Z" stroke="#A4A4A4" stroke-width="1.5" stroke-linecap="round" stroke-linejoin="round"/>
<path d="M17 4.5H22" stroke="#A4A4A4" stroke-width="1.5" stroke-linecap="round"/>
<path d="M19.5 7L19.5 2" stroke="#A4A4A4" stroke-width="1.5" stroke-linecap="round"/>
</svg>
