<svg width="24" height="24" viewBox="0 0 24 24" fill="none" xmlns="http://www.w3.org/2000/svg">
<path d="M14.55 6.05038L17.9501 9.45046M19.798 7.59062C20.2474 7.14132 20.4999 6.53189 20.5 5.8964C20.5001 5.26092 20.2477 4.65143 19.7984 4.20201C19.3491 3.7526 18.7397 3.50008 18.1042 3.5C17.4688 3.49992 16.8593 3.75229 16.4099 4.20159L5.06566 15.5485C4.8683 15.7453 4.72235 15.9876 4.64065 16.254L3.51779 19.9533C3.49583 20.0268 3.49417 20.1049 3.51299 20.1793C3.53182 20.2537 3.57043 20.3216 3.62472 20.3758C3.67902 20.43 3.74697 20.4685 3.82138 20.4872C3.89579 20.5059 3.97387 20.5041 4.04735 20.482L7.74743 19.36C8.01363 19.279 8.25589 19.134 8.45294 18.9375L19.798 7.59062Z" stroke="white" stroke-width="1.5" stroke-linecap="round" stroke-linejoin="round"/>
</svg>
