<svg width="24" height="24" viewBox="0 0 24 24" fill="none" xmlns="http://www.w3.org/2000/svg">
<path d="M9 21L5 21C4.46957 21 3.96086 20.7893 3.58579 20.4142C3.21071 20.0391 3 19.5304 3 19V10C2.99993 9.70907 3.06333 9.42162 3.18579 9.15771C3.30824 8.89381 3.4868 8.65979 3.709 8.472L10.709 2.473C11.07 2.16791 11.5274 2.00052 12 2.00052C12.4726 2.00052 12.93 2.16791 13.291 2.473L20.291 8.472C20.5132 8.65979 20.6918 8.89381 20.8142 9.15771C20.9367 9.42162 21.0001 9.70907 21 10V19C21 19.5304 20.7893 20.0391 20.4142 20.4142C20.0391 20.7893 19.5304 21 19 21L15 21" stroke="#A4A4A4" stroke-width="1.5" stroke-linecap="round" stroke-linejoin="round"/>
<path d="M9 21V13C9 12.7348 9.10536 12.4804 9.29289 12.2929C9.48043 12.1054 9.73478 12 10 12H14C14.2652 12 14.5196 12.1054 14.7071 12.2929C14.8946 12.4804 15 12.7348 15 13V21" stroke="#A4A4A4" stroke-width="1.5" stroke-linecap="round" stroke-linejoin="round"/>
</svg>
